<svg width="100" height="100" viewBox="0 0 100 100" fill="none" xmlns="http://www.w3.org/2000/svg">
<path d="M2 50C2 56.3035 3.24156 62.5452 5.65378 68.3688C8.06601 74.1924 11.6017 79.4839 16.0589 83.9411C20.5161 88.3983 25.8076 91.934 31.6312 94.3462C37.4548 96.7585 43.6966 98 50 98C56.3035 98 62.5452 96.7585 68.3688 94.3462C74.1924 91.934 79.4839 88.3983 83.9411 83.9411C88.3983 79.4839 91.934 74.1924 94.3462 68.3688C96.7584 62.5452 98 56.3035 98 50C98 43.6966 96.7584 37.4548 94.3462 31.6312C91.934 25.8076 88.3983 20.5161 83.9411 16.0589C79.4839 11.6017 74.1924 8.06601 68.3688 5.65378C62.5452 3.24156 56.3035 2 50 2C43.6966 2 37.4548 3.24156 31.6312 5.65378C25.8076 8.06601 20.5161 11.6017 16.0589 16.0589C11.6017 20.5161 8.06601 25.8076 5.65378 31.6312C3.24156 37.4548 2 43.6966 2 50Z" fill="#0069FF" fill-opacity="0.15"/>
<path d="M24.8633 80.4323C24.8633 80.6762 25.5135 80.9178 26.7768 81.1432C28.0401 81.3686 29.8917 81.5733 32.2259 81.7458C34.5602 81.9183 37.3313 82.0551 40.3811 82.1485C43.431 82.2419 46.6998 82.2899 50.0009 82.2899C53.302 82.2899 56.5708 82.2419 59.6206 82.1485C62.6705 82.0551 65.4416 81.9183 67.7758 81.7458C70.1101 81.5733 71.9617 81.3686 73.225 81.1432C74.4883 80.9178 75.1385 80.6762 75.1385 80.4323C75.1385 79.9396 72.4901 79.4672 67.7758 79.1188C63.0616 78.7704 56.6678 78.5747 50.0009 78.5747C43.334 78.5747 36.9401 78.7704 32.2259 79.1188C27.5117 79.4672 24.8633 79.9396 24.8633 80.4323Z" fill="#0069FF" fill-opacity="0.5"/>
<path d="M17.991 24.9858H82.1694V79.0794H17.991V24.9858Z" fill="white" stroke="#0B3558" stroke-width="1.5" stroke-linejoin="round"/>
<path d="M82.1694 41.4894H17.991V27.8658C17.991 27.102 18.2944 26.3695 18.8345 25.8294C19.3746 25.2893 20.1071 24.9858 20.871 24.9858H79.2894C80.0532 24.9858 80.7857 25.2893 81.3258 25.8294C81.8659 26.3695 82.1694 27.102 82.1694 27.8658V41.4894Z" fill="#0069FF" fill-opacity="0.5"/>
<path d="M82.1701 52.4917V75.4117C82.1701 76.3843 81.7837 77.3171 81.096 78.0048C80.4083 78.6925 79.4755 79.0789 78.5029 79.0789H52.8313C52.8313 79.0789 67.5001 74.4961 82.1701 52.4917Z" fill="white"/>
<path d="M82.1701 52.4917V75.4117C82.1701 76.3843 81.7837 77.3171 81.096 78.0048C80.4083 78.6925 79.4755 79.0789 78.5029 79.0789H52.8313C52.8313 79.0789 67.5001 74.4961 82.1701 52.4917Z" stroke="#0B3558" stroke-width="1.5" stroke-linejoin="round"/>
<path d="M82.1694 41.4894H17.991V27.8658C17.991 27.102 18.2944 26.3695 18.8345 25.8294C19.3746 25.2893 20.1071 24.9858 20.871 24.9858H79.2894C80.0532 24.9858 80.7857 25.2893 81.3258 25.8294C81.8659 26.3695 82.1694 27.102 82.1694 27.8658V41.4894Z" stroke="#0B3558" stroke-width="1.5" stroke-linejoin="round"/>
<path d="M31.7434 30.4874C30.6554 30.4874 29.5919 30.1648 28.6873 29.5604C27.7827 28.956 27.0776 28.0968 26.6613 27.0917C26.2449 26.0866 26.136 24.9805 26.3483 23.9135C26.5605 22.8464 27.0844 21.8663 27.8537 21.097C28.623 20.3277 29.6032 19.8038 30.6702 19.5915C31.7373 19.3793 32.8433 19.4882 33.8484 19.9046C34.8536 20.3209 35.7127 21.026 36.3171 21.9306C36.9215 22.8352 37.2442 23.8987 37.2442 24.9866" stroke="#0B3558" stroke-width="1.5" stroke-linecap="round" stroke-linejoin="round"/>
<path d="M50.9968 30.4874C49.9088 30.4874 48.8453 30.1648 47.9407 29.5604C47.0361 28.956 46.331 28.0968 45.9147 27.0917C45.4984 26.0866 45.3894 24.9805 45.6017 23.9135C45.8139 22.8464 46.3378 21.8663 47.1071 21.097C47.8764 20.3277 48.8566 19.8038 49.9236 19.5915C50.9907 19.3793 52.0967 19.4882 53.1018 19.9046C54.107 20.3209 54.9661 21.026 55.5705 21.9306C56.175 22.8352 56.4976 23.8987 56.4976 24.9866" stroke="#0B3558" stroke-width="1.5" stroke-linecap="round" stroke-linejoin="round"/>
<path d="M70.2526 30.4874C69.1647 30.4874 68.1012 30.1648 67.1966 29.5604C66.2919 28.956 65.5869 28.0968 65.1706 27.0917C64.7542 26.0866 64.6453 24.9805 64.8575 23.9135C65.0698 22.8464 65.5937 21.8663 66.363 21.097C67.1323 20.3277 68.1124 19.8038 69.1795 19.5915C70.2465 19.3793 71.3526 19.4882 72.3577 19.9046C73.3628 20.3209 74.2219 21.026 74.8264 21.9306C75.4308 22.8352 75.7534 23.8987 75.7534 24.9866" stroke="#0B3558" stroke-width="1.5" stroke-linecap="round" stroke-linejoin="round"/>
<path d="M17.991 50.6577H82.1694" stroke="#0B3558" stroke-width="1.5" stroke-linecap="round" stroke-linejoin="round"/>
<path d="M17.991 59.8257H56.349" stroke="#0B3558" stroke-width="1.5" stroke-linecap="round" stroke-linejoin="round"/>
<path d="M17.991 68.9956H56.349" stroke="#0B3558" stroke-width="1.5" stroke-linecap="round" stroke-linejoin="round"/>
<path d="M30.8271 41.4902V79.0802" stroke="#0B3558" stroke-width="1.5" stroke-linecap="round" stroke-linejoin="round"/>
<path d="M43.6637 41.4902V79.0802" stroke="#0B3558" stroke-width="1.5" stroke-linecap="round" stroke-linejoin="round"/>
<path d="M56.4988 41.4902V53.9318" stroke="#0B3558" stroke-width="1.5" stroke-linecap="round" stroke-linejoin="round"/>
<path d="M69.3334 41.4902V55.6058" stroke="#0B3558" stroke-width="1.5" stroke-linecap="round" stroke-linejoin="round"/>
<path d="M17.991 50.6577H30.8262V59.8257H17.991V50.6577Z" fill="#0069FF" fill-opacity="0.5" stroke="#0B3558" stroke-width="1.5" stroke-linejoin="round"/>
<path d="M30.8271 68.9956H43.6623V79.0804H30.8271V68.9956Z" fill="#0069FF" fill-opacity="0.5" stroke="#0B3558" stroke-width="1.5" stroke-linejoin="round"/>
<path d="M43.6637 41.4902H56.4989V50.6582H43.6637V41.4902Z" fill="#0069FF" fill-opacity="0.5" stroke="#0B3558" stroke-width="1.5" stroke-linejoin="round"/>
<path d="M82.1701 52.4917C67.5001 74.4961 52.8313 79.0801 52.8313 79.0801C54.919 75.4296 56.2057 71.3764 56.6059 67.1902C57.006 63.0039 56.5104 58.7804 55.1521 54.8005C55.1059 54.6704 55.096 54.5301 55.1234 54.3948C55.1508 54.2594 55.2146 54.1341 55.3078 54.0323C55.4011 53.9304 55.5203 53.8558 55.6526 53.8166C55.785 53.7773 55.9256 53.7748 56.0593 53.8093C60.2929 54.9697 73.0681 57.8005 82.1701 52.4917Z" fill="white" stroke="#0B3558" stroke-width="1.5" stroke-linecap="round" stroke-linejoin="round"/>
<path d="M40.9109 35.9883H59.2481" stroke="#0B3558" stroke-width="1.5" stroke-linecap="round" stroke-linejoin="round"/>
<path d="M69.3334 35.9883H76.669" stroke="#0B3558" stroke-width="1.5" stroke-linecap="round" stroke-linejoin="round"/>
<path d="M30.8266 35.9883H23.4922" stroke="#0B3558" stroke-width="1.5" stroke-linecap="round" stroke-linejoin="round"/>
</svg>
