<svg width="50" height="50" viewBox="0 0 50 50" fill="none" xmlns="http://www.w3.org/2000/svg">
    <path d="M44.661 6H17.8091C16.605 6 15.6055 7.00624 15.6055 8.21831V10.7339L30.758 15.4221L46.8646 10.7111V8.19544C46.8419 6.98338 45.865 6 44.661 6Z" fill="#0364B8" />
    <path d="M49.4326 30.2184C49.6598 29.4866 49.8415 28.7548 49.9778 28.0001C49.9778 27.6342 49.7734 27.2912 49.4553 27.0854H49.4326L32.5082 17.3888C32.44 17.3431 32.3491 17.2973 32.281 17.2516C31.6222 16.9314 30.8498 16.9314 30.191 17.2516C30.1228 17.2973 30.032 17.3431 29.9638 17.3888L13.0394 27.0854H13.0166C12.6986 27.2683 12.4941 27.6113 12.4941 28.0001C12.6304 28.7548 12.8122 29.4866 13.0394 30.2184L30.9861 43.4368L49.4326 30.2184Z" fill="#0A2767" />
    <path d="M37.4832 10.7112H26.5562L23.3984 15.4222L26.5562 20.1333L37.4832 29.5554H46.8428V20.1333L37.4832 10.7112Z" fill="#28A8EA" />
    <path fillRule="evenodd" clipRule="evenodd" d="M15.6055 10.7117H26.5325V20.1338H15.6055V10.7117Z" fill="#0078D4" />
    <path fillRule="evenodd" clipRule="evenodd" d="M37.4844 10.7117H46.8439V20.1338H37.4844V10.7117Z" fill="#50D9FF" />
    <path d="M37.4823 29.5786L26.5553 20.1565H15.6055V29.5786L26.5325 39.0007L43.457 41.7908L37.4823 29.5786Z" fill="#0364B8" />
    <path fillRule="evenodd" clipRule="evenodd" d="M26.5547 20.1328H37.4817V29.5549H26.5547V20.1328Z" fill="#0078D4" />
    <path fillRule="evenodd" clipRule="evenodd" d="M15.6055 29.5786H26.5325V39.0007H15.6055V29.5786Z" fill="#064A8C" />
    <path fillRule="evenodd" clipRule="evenodd" d="M37.4844 29.5786H46.8439V39.0007H37.4844V29.5786Z" fill="#0078D4" />
    <path d="M31.5332 42.499L13.1094 28.9833L13.8818 27.6112C13.8818 27.6112 30.6699 37.2391 30.9198 37.3763C31.1243 37.4678 31.3742 37.4449 31.5786 37.3534C31.8285 37.2162 48.6621 27.5654 48.6621 27.5654L49.4345 28.9376L31.5332 42.499Z" fill="#0A2767" fillOpacity="0.498" />
    <path d="M49.4552 28.9153L49.4325 28.9381L32.5081 38.6347C31.8265 39.0692 30.9633 39.1378 30.2363 38.7719L36.1428 46.7304L49.0236 49.5661C49.637 49.1316 50.0005 48.4227 50.0005 47.668V28.0005C49.9777 28.3664 49.7733 28.7094 49.4552 28.9153Z" fill="#1490DF" />
    <path d="M49.9777 47.6446V46.4782L34.3936 37.5364L32.5081 38.6112C31.8265 39.0457 30.9633 39.1144 30.2363 38.7484L36.1428 46.7069L49.0236 49.5427C49.6143 49.1082 49.9777 48.3992 49.9777 47.6446Z" fill="black" fillOpacity="0.047059" />
    <path d="M49.8869 48.2623L32.8034 38.4514L32.5081 38.6344C31.8265 39.0689 30.9633 39.1375 30.2363 38.7716L36.1428 46.7301L49.0236 49.5658C49.4552 49.2457 49.7506 48.7883 49.8869 48.2623Z" fill="black" fillOpacity="0.098039" />
    <path d="M13.0394 28.9376L12.9712 28.8919C12.6759 28.7089 12.4941 28.3659 12.4941 28V47.6446C12.4941 48.9253 13.5391 50.0002 14.834 50.0002H47.6379C47.8424 50.0002 48.0241 49.9773 48.2059 49.9316C48.2968 49.9087 48.3876 49.8858 48.4785 49.8401C48.5012 49.8401 48.5466 49.8172 48.5694 49.8172C48.7057 49.7715 48.8193 49.7029 48.9328 49.6114L49.001 49.5657L13.0394 28.9376Z" fill="#28A8EA" />
    <path d="M28.101 41.6301V15.948C28.101 14.8045 27.1696 13.8669 26.011 13.844H15.6746V25.5759L13.0394 27.0853H13.0166C12.6986 27.2682 12.4941 27.6112 12.4941 28V43.734H26.0337C27.1696 43.7112 28.101 42.7735 28.101 41.6301Z" fill="black" fillOpacity="0.098039" />
    <path d="M26.5562 43.1851V17.5258C26.5562 16.3824 25.6248 15.4447 24.4662 15.4219H15.6746V25.5758L13.0394 27.0852H13.0166C12.6986 27.2681 12.4941 27.6112 12.4941 27.9999V45.2891H24.4662C25.6021 45.2891 26.5562 44.3514 26.5562 43.1851ZM26.5562 40.052V17.5258C26.5562 16.3824 25.6248 15.4447 24.4662 15.4219H15.6746V25.5758L13.0394 27.0852H13.0166C12.6986 27.2681 12.4941 27.6112 12.4941 27.9999V42.156H24.4662C25.6021 42.1331 26.5562 41.1955 26.5562 40.052ZM24.9887 40.052V17.5258C24.9887 16.3824 24.0573 15.4447 22.8987 15.4219H15.6746V25.5758L13.0394 27.0852H13.0166C12.6986 27.2681 12.4941 27.6112 12.4941 27.9999V42.156H22.8987C24.0573 42.1331 24.9887 41.1955 24.9887 40.052Z" fill="black" fillOpacity="0.2" />
    <path d="M2.09 15.4219H22.9218C24.0577 15.4219 25.0118 16.3595 25.0118 17.5258V38.4969C25.0118 39.6404 24.0804 40.6009 22.9218 40.6009H2.09C0.95413 40.6009 0 39.6632 0 38.4969V17.5258C0 16.3595 0.931413 15.4219 2.09 15.4219Z" fill="#0078D4" />
    <path d="M6.0454 24.0205C6.59062 22.8313 7.49931 21.8479 8.61246 21.1618C9.86192 20.4529 11.2704 20.087 12.6789 20.1327C13.9965 20.1099 15.3141 20.43 16.45 21.1161C17.5177 21.7564 18.4037 22.7169 18.9489 23.8375C19.5395 25.0953 19.8576 26.4675 19.8121 27.8397C19.8349 29.2804 19.5395 30.7212 18.9034 32.0247C18.3355 33.191 17.4495 34.1744 16.3364 34.8376C15.1551 35.5237 13.792 35.8667 12.429 35.8439C11.0887 35.8667 9.74833 35.5237 8.56703 34.8605C7.47659 34.2202 6.61333 33.2597 6.0454 32.1391C5.43203 30.9041 5.1367 29.5548 5.15942 28.1827C5.15942 26.7419 5.45475 25.324 6.0454 24.0205ZM8.77148 30.7212C9.06681 31.4759 9.56659 32.1162 10.2254 32.5964C10.8842 33.0538 11.6793 33.3054 12.4744 33.2825C13.3377 33.3054 14.1782 33.0767 14.8825 32.5736C15.5185 32.0933 16.0183 31.453 16.2909 30.6983C16.609 29.8521 16.7453 28.9831 16.7453 28.0683C16.7453 27.1764 16.609 26.2617 16.3137 25.4155C16.0638 24.638 15.5867 23.9748 14.9506 23.4716C14.2691 22.9456 13.4285 22.6941 12.5653 22.7398C11.7475 22.7169 10.9296 22.9685 10.2481 23.4259C9.58931 23.9061 9.06681 24.5694 8.77148 25.324C8.11268 27.0392 8.11268 28.9602 8.77148 30.7212Z" fill="white" />
</svg>
